# xmcd
# 
# Track frame offsets:
#   150
#   18062
#   33645
#   53495
#   70607
#   88837
#   107015
#   122025
#   139007
#   151257
#   164195
#   180757
#   195422
#   213565
# 
# Disc length: 3094 seconds
# 
# Revision: 1
# Processed by: cddbd v1.5.1PL2 Copyright (c) Steve Scherf et al.
# Submitted via: Synapstar 1.0 
# 
DISCID=b30c140e
DTITLE=Various Artist - SD040 - Country Hits Today
DYEAR=1900
DGENRE=Country
TTITLE0=Alan Jackson - There Goes
TTITLE1=Vince Gill - You And You Alone
TTITLE2=John Michael Montgomery - How Was I To Know
TTITLE3=Collin Raye - What The Heart Wants
TTITLE4=Lila McCann - Down Came a Blackbird
TTITLE5=Sawyer Brown - This Night Won't Last Forever
TTITLE6=Ricochet - He Left A Lot To Be Desired
TTITLE7=Blackhawk - Hole In My Heart
TTITLE8=Lorrie Morgan - Go Away, No, Wait A Minute
TTITLE9=David Lee Murphy - All Lit Up In Love
TTITLE10=Lee Ann Womack - The Fool
TTITLE11=John Anderson - Somebody Slap Me
TTITLE12=Tanya Tucker - Ridin' Out The Heartache
TTITLE13=Travis Tritt and Lari White - Helping Me Get Over You
EXTD=MediaType: Karaoke CD+G Producer: StarDisc
EXTT0=
EXTT1=
EXTT2=
EXTT3=
EXTT4=
EXTT5=
EXTT6=
EXTT7=
EXTT8=
EXTT9=
EXTT10=
EXTT11=
EXTT12=
EXTT13=
PLAYORDER=
